<?xml version="1.0" encoding="utf-8"?>
<!-- Generator: Adobe Illustrator 16.0.0, SVG Export Plug-In . SVG Version: 6.00 Build 0)  -->
<!DOCTYPE svg PUBLIC "-//W3C//DTD SVG 1.1//EN" "http://www.w3.org/Graphics/SVG/1.1/DTD/svg11.dtd">
<svg version="1.1" id="Layer_1" xmlns="http://www.w3.org/2000/svg" xmlns:xlink="http://www.w3.org/1999/xlink" x="0px" y="0px"
	 width="68.039px" height="67.938px" viewBox="0 0 68.039 67.938" enable-background="new 0 0 68.039 67.938" xml:space="preserve">
<g>
	<path fill="#F9B82D" d="M55.576,9.194l0.001,0.002c-0.003-0.004-0.004-0.005-0.008-0.005c-0.006-0.005-0.01-0.011-0.016-0.017
		l-0.002,0.002C42.034-2.697,21.371-1.478,9.359,11.966C3.105,18.962,0.41,27.914,1.135,36.6l11.047-0.866
		c-0.495-5.776,1.279-11.735,5.438-16.387c7.983-8.937,21.733-9.73,30.69-1.798c9.102,7.757,10.239,21.479,2.515,30.63
		c-4.021,4.771-9.674,7.363-15.464,7.684l0.691,11.06c8.702-0.503,17.188-4.425,23.238-11.597
		C70.915,41.546,69.228,20.918,55.576,9.194z"/>
	<polygon fill="#F9B82D" points="11.398,46.857 23.103,45.964 23.857,57.678 31.407,64.24 29.688,38.382 3.844,40.305 	"/>
</g>
</svg>
