<?xml version="1.0" encoding="utf-8"?>
<!-- Generator: Adobe Illustrator 16.0.0, SVG Export Plug-In . SVG Version: 6.00 Build 0)  -->
<!DOCTYPE svg PUBLIC "-//W3C//DTD SVG 1.1//EN" "http://www.w3.org/Graphics/SVG/1.1/DTD/svg11.dtd">
<svg version="1.1" id="Layer_1" xmlns="http://www.w3.org/2000/svg" xmlns:xlink="http://www.w3.org/1999/xlink" x="0px" y="0px"
	 width="68.039px" height="67.939px" viewBox="0 0 68.039 67.939" enable-background="new 0 0 68.039 67.939" xml:space="preserve">
<g>
	<path fill="#EA3829" d="M55.576,9.196L55.576,9.196c-0.002-0.002-0.003-0.004-0.007-0.005c-0.006-0.006-0.01-0.012-0.016-0.017
		l-0.002,0.001C42.034-2.698,21.371-1.477,9.359,11.966C3.105,18.962,0.41,27.913,1.135,36.6l11.047-0.868
		c-0.495-5.774,1.279-11.735,5.438-16.386c7.983-8.938,21.733-9.731,30.69-1.798c9.102,7.758,10.239,21.479,2.515,30.629
		c-4.021,4.772-9.674,7.364-15.464,7.684l0.691,11.06c8.702-0.503,17.188-4.425,23.238-11.597
		C70.915,41.547,69.228,20.917,55.576,9.196z"/>
	<polygon fill="#EA3829" points="11.398,46.857 23.103,45.963 23.857,57.677 31.407,64.24 29.688,38.381 3.844,40.303 	"/>
</g>
</svg>
