<?xml version="1.0" encoding="utf-8"?>
<!-- Generator: Adobe Illustrator 16.0.0, SVG Export Plug-In . SVG Version: 6.00 Build 0)  -->
<!DOCTYPE svg PUBLIC "-//W3C//DTD SVG 1.1//EN" "http://www.w3.org/Graphics/SVG/1.1/DTD/svg11.dtd">
<svg version="1.1" id="Layer_1" xmlns="http://www.w3.org/2000/svg" xmlns:xlink="http://www.w3.org/1999/xlink" x="0px" y="0px"
	 width="332.281px" height="67.939px" viewBox="0 0 332.281 67.939" enable-background="new 0 0 332.281 67.939"
	 xml:space="preserve">
<g>
	<path fill="#EA3829" d="M57.657,8.758l0.002,0.001c-0.004-0.003-0.006-0.005-0.009-0.006c-0.006-0.005-0.01-0.009-0.016-0.016
		L57.632,8.74C43.876-3.344,22.851-2.102,10.626,11.579c-6.363,7.118-9.105,16.227-8.369,25.066l11.242-0.882
		c-0.505-5.876,1.302-11.943,5.534-16.675c8.123-9.094,22.115-9.902,31.231-1.831c9.262,7.896,10.419,21.858,2.559,31.171
		c-4.093,4.855-9.844,7.494-15.736,7.817L37.789,67.5c8.856-0.51,17.491-4.502,23.648-11.801
		C73.268,41.68,71.549,20.687,57.657,8.758z"/>
	<polygon fill="#EA3829" points="12.701,47.084 24.613,46.175 25.38,58.096 33.063,64.774 31.313,38.458 5.014,40.416 	"/>
</g>
<g>
	<path fill="#EA3829" d="M119.199,57.958l-13.124-0.012l-7.878-13.059c-0.588-0.992-1.154-1.875-1.694-2.656
		c-0.543-0.778-1.09-1.445-1.644-1.999c-0.554-0.555-1.131-0.979-1.731-1.275c-0.601-0.294-1.256-0.442-1.964-0.443l-3.078-0.003
		L88.07,57.931l-11.425-0.01l0.042-50.726l18.111,0.015c12.311,0.011,18.462,4.614,18.454,13.812
		c-0.001,1.769-0.274,3.402-0.818,4.898c-0.543,1.498-1.311,2.846-2.302,4.049c-0.992,1.201-2.191,2.239-3.593,3.111
		c-1.404,0.87-2.966,1.553-4.689,2.046v0.142c0.755,0.236,1.485,0.62,2.193,1.152c0.706,0.53,1.389,1.151,2.05,1.858
		c0.66,0.709,1.29,1.47,1.89,2.284c0.6,0.814,1.148,1.611,1.644,2.389L119.199,57.958z M88.105,15.767l-0.012,14.114l4.952,0.004
		c2.453,0.002,4.424-0.705,5.911-2.118c1.509-1.437,2.266-3.217,2.267-5.34c0.004-4.433-2.647-6.651-7.953-6.656L88.105,15.767z"/>
	<path fill="#EA3829" d="M135.365,57.972l-11.424-0.01l0.041-50.727l11.426,0.01L135.365,57.972z"/>
	<path fill="#EA3829" d="M188.535,54.622c-4.955,2.851-11.11,4.27-18.47,4.262c-8.16-0.006-14.588-2.27-19.29-6.791
		c-4.702-4.517-7.048-10.739-7.042-18.664c0.007-7.97,2.583-14.464,7.729-19.484c5.146-5.019,11.986-7.524,20.523-7.517
		c5.375,0.004,10.115,0.75,14.218,2.24l-0.009,10.719c-3.915-2.267-8.7-3.403-14.361-3.408c-4.739-0.004-8.603,1.532-11.587,4.607
		c-2.987,3.074-4.481,7.183-4.485,12.324c-0.004,5.211,1.33,9.246,4.005,12.101c2.673,2.856,6.288,4.286,10.838,4.29
		c2.735,0.002,4.905-0.385,6.509-1.162l0.008-9.906l-10.151-0.008l0.008-9.126l21.578,0.019L188.535,54.622z"/>
	<path fill="#EA3829" d="M243.007,58.064l-12.451-0.012l-3.6-11.288l-18.04-0.016l-3.582,11.282l-12.379-0.01l18.506-50.713
		l13.547,0.012L243.007,58.064z M224.348,37.99l-5.434-17.056c-0.4-1.273-0.682-2.794-0.846-4.563l-0.282,0
		c-0.12,1.486-0.417,2.959-0.889,4.42l-5.532,17.188L224.348,37.99z"/>
	<path fill="#EA3829" d="M307.142,58.119l-11.285-0.01l0.026-30.353c0.003-3.278,0.146-6.898,0.432-10.859h-0.283
		c-0.591,3.111-1.124,5.352-1.597,6.719L282.52,58.097l-9.337-0.008l-12.069-34.147c-0.33-0.922-0.858-3.28-1.586-7.077h-0.319
		c0.302,5,0.452,9.386,0.449,13.159l-0.024,28.053l-10.292-0.01l0.042-50.727l16.733,0.014l10.339,30.076
		c0.823,2.406,1.423,4.824,1.798,7.254h0.213c0.639-2.805,1.313-5.246,2.022-7.32l10.389-29.989l16.308,0.014L307.142,58.119z"/>
	<path fill="#EA3829" d="M330.098,58.138l-11.425-0.01l0.042-50.729l11.426,0.01L330.098,58.138z"/>
</g>
</svg>
