<?xml version="1.0" encoding="utf-8"?>
<!-- Generator: Adobe Illustrator 16.0.0, SVG Export Plug-In . SVG Version: 6.00 Build 0)  -->
<!DOCTYPE svg PUBLIC "-//W3C//DTD SVG 1.1//EN" "http://www.w3.org/Graphics/SVG/1.1/DTD/svg11.dtd">
<svg version="1.1" id="Layer_1" xmlns="http://www.w3.org/2000/svg" xmlns:xlink="http://www.w3.org/1999/xlink" x="0px" y="0px"
	 width="332.281px" height="93.909px" viewBox="0 0 332.281 93.909" enable-background="new 0 0 332.281 93.909"
	 xml:space="preserve">
<g>
	<path fill="#EA3829" d="M57.657,8.926l0.002,0.001c-0.004-0.002-0.006-0.004-0.01-0.005c-0.005-0.005-0.009-0.011-0.015-0.016
		l-0.002,0.002C43.876-3.176,22.851-1.934,10.626,11.747c-6.363,7.117-9.105,16.227-8.369,25.066l11.241-0.882
		c-0.504-5.875,1.302-11.943,5.535-16.674c8.123-9.095,22.115-9.902,31.231-1.831c9.261,7.896,10.419,21.858,2.559,31.17
		c-4.094,4.855-9.845,7.493-15.736,7.819l0.703,11.253c8.855-0.51,17.49-4.502,23.647-11.801
		C73.268,41.848,71.549,20.854,57.657,8.926z"/>
	<polygon fill="#EA3829" points="12.701,47.251 24.613,46.342 25.38,58.263 33.063,64.941 31.313,38.626 5.014,40.583 	"/>
</g>
<g>
	<path fill="#EA3829" d="M119.199,58.125l-13.124-0.012l-7.878-13.059c-0.588-0.992-1.154-1.875-1.694-2.656
		c-0.543-0.779-1.09-1.445-1.644-2c-0.553-0.555-1.131-0.979-1.731-1.274c-0.601-0.295-1.256-0.442-1.964-0.443l-3.077-0.003
		L88.07,58.098l-11.425-0.01l0.042-50.726l18.111,0.015c12.311,0.011,18.461,4.614,18.454,13.812
		c-0.001,1.769-0.274,3.402-0.818,4.898c-0.543,1.498-1.311,2.847-2.302,4.048c-0.992,1.202-2.191,2.239-3.594,3.111
		c-1.404,0.87-2.966,1.553-4.688,2.046v0.142c0.755,0.236,1.485,0.62,2.193,1.152c0.706,0.53,1.389,1.151,2.05,1.858
		c0.66,0.709,1.29,1.469,1.89,2.284c0.6,0.814,1.148,1.61,1.644,2.389L119.199,58.125z M88.105,15.934l-0.012,14.115l4.953,0.004
		c2.453,0.002,4.423-0.704,5.911-2.118c1.509-1.437,2.266-3.217,2.267-5.34c0.004-4.433-2.647-6.652-7.953-6.657L88.105,15.934z"/>
	<path fill="#EA3829" d="M135.365,58.139l-11.425-0.01l0.042-50.727l11.426,0.01L135.365,58.139z"/>
	<path fill="#EA3829" d="M188.535,54.789c-4.955,2.852-11.11,4.27-18.47,4.262c-8.16-0.006-14.588-2.27-19.29-6.791
		c-4.702-4.517-7.048-10.739-7.042-18.664c0.007-7.97,2.583-14.464,7.729-19.483s11.986-7.524,20.523-7.517
		c5.375,0.004,10.116,0.75,14.219,2.24l-0.009,10.718c-3.915-2.267-8.7-3.403-14.361-3.408c-4.739-0.004-8.603,1.532-11.587,4.608
		c-2.987,3.074-4.481,7.183-4.485,12.324c-0.004,5.211,1.33,9.246,4.005,12.101c2.673,2.856,6.288,4.286,10.838,4.29
		c2.735,0.002,4.906-0.385,6.508-1.162l0.009-9.906l-10.151-0.009l0.008-9.126l21.578,0.019L188.535,54.789z"/>
	<path fill="#EA3829" d="M243.007,58.231l-12.451-0.012l-3.6-11.288l-18.04-0.016l-3.582,11.282l-12.379-0.01l18.506-50.712
		l13.547,0.011L243.007,58.231z M224.348,38.157l-5.435-17.056c-0.399-1.273-0.681-2.794-0.845-4.563l-0.281,0
		c-0.121,1.487-0.417,2.959-0.89,4.421l-5.532,17.188L224.348,38.157z"/>
	<path fill="#EA3829" d="M307.141,58.286l-11.284-0.01l0.026-30.353c0.003-3.278,0.146-6.898,0.432-10.859h-0.283
		c-0.592,3.111-1.124,5.352-1.597,6.72l-11.915,34.48l-9.338-0.008l-12.069-34.147c-0.33-0.921-0.858-3.279-1.585-7.077h-0.319
		c0.302,5,0.452,9.386,0.449,13.159l-0.024,28.053l-10.293-0.01l0.042-50.727l16.733,0.014l10.339,30.076
		c0.823,2.406,1.423,4.825,1.798,7.254h0.212c0.64-2.805,1.313-5.246,2.022-7.321l10.39-29.989l16.308,0.014L307.141,58.286z"/>
	<path fill="#EA3829" d="M330.098,58.305l-11.426-0.01l0.043-50.729l11.426,0.01L330.098,58.305z"/>
</g>
<g>
	<path fill="#EA3829" d="M63.844,92.495c-1.022,0.539-2.296,0.808-3.818,0.808c-1.967,0-3.541-0.632-4.724-1.896
		c-1.184-1.267-1.775-2.927-1.776-4.982c-0.001-2.209,0.665-4,1.995-5.36c1.33-1.362,3.016-2.045,5.059-2.045
		c1.312,0,2.397,0.188,3.261,0.567v1.728c-0.99-0.557-2.083-0.831-3.279-0.831c-1.586,0-2.874,0.534-3.86,1.592
		c-0.985,1.062-1.479,2.48-1.478,4.253c0,1.684,0.462,3.026,1.384,4.023c0.923,0.999,2.133,1.499,3.63,1.499
		c1.389,0,2.59-0.309,3.607-0.926V92.495z"/>
	<path fill="#EA3829" d="M76.568,93.069H74.64l-2.314-3.874c-0.212-0.361-0.418-0.667-0.616-0.921
		c-0.2-0.252-0.405-0.463-0.614-0.621c-0.208-0.164-0.434-0.276-0.674-0.353c-0.242-0.074-0.512-0.111-0.815-0.111h-1.331
		l0.002,5.882h-1.62l-0.005-13.824h4.126c0.605,0,1.162,0.076,1.673,0.225c0.512,0.153,0.956,0.382,1.332,0.69
		c0.375,0.307,0.669,0.69,0.882,1.153c0.213,0.456,0.318,0.997,0.319,1.613c0,0.48-0.071,0.924-0.216,1.327
		c-0.146,0.398-0.351,0.758-0.618,1.071c-0.266,0.316-0.588,0.584-0.964,0.809c-0.375,0.22-0.798,0.39-1.268,0.515v0.039
		c0.232,0.104,0.434,0.219,0.604,0.352c0.17,0.131,0.333,0.287,0.486,0.466c0.155,0.182,0.309,0.385,0.459,0.611
		c0.151,0.232,0.32,0.495,0.506,0.798L76.568,93.069z M68.274,80.713l0.002,5.012h2.198c0.405,0,0.78-0.063,1.123-0.182
		c0.344-0.125,0.641-0.301,0.891-0.528c0.25-0.227,0.447-0.506,0.587-0.838c0.142-0.329,0.213-0.702,0.213-1.114
		c-0.001-0.737-0.241-1.316-0.72-1.729c-0.478-0.416-1.17-0.621-2.077-0.621H68.274z"/>
	<path fill="#EA3829" d="M89.169,93.067h-1.793l-1.467-3.876l-5.861,0.002l-1.378,3.876h-1.802l5.296-13.826h1.678L89.169,93.067z
		 M85.376,87.737l-2.17-5.892c-0.071-0.19-0.14-0.499-0.212-0.925h-0.039c-0.063,0.395-0.138,0.703-0.221,0.925l-2.148,5.894
		L85.376,87.737z"/>
	<path fill="#EA3829" d="M98.216,80.706l-5.397,0.002l0.002,4.781h4.994v1.454H92.82l0.002,6.122h-1.62l-0.005-13.824l7.018-0.002
		L98.216,80.706z"/>
	<path fill="#EA3829" d="M109.149,80.704l-3.992,0.002l0.004,12.357h-1.62l-0.004-12.357h-3.981l-0.001-1.467l9.592-0.002
		L109.149,80.704z"/>
	<path fill="#EA3829" d="M112.94,93.061h-1.62l-0.005-13.824h1.62L112.94,93.061z"/>
	<path fill="#EA3829" d="M127.72,93.057h-1.986l-7.118-11.018c-0.18-0.277-0.328-0.566-0.443-0.867h-0.058
		c0.051,0.297,0.076,0.929,0.077,1.898l0.003,9.988h-1.619l-0.004-13.824h2.101l6.927,10.842c0.289,0.453,0.475,0.762,0.561,0.926
		h0.037c-0.064-0.395-0.097-1.074-0.097-2.032l-0.004-9.737h1.62L127.72,93.057z"/>
	<path fill="#EA3829" d="M141.68,92.108c-1.39,0.787-2.932,1.175-4.628,1.177c-1.973,0-3.569-0.636-4.786-1.908
		c-1.219-1.272-1.828-2.953-1.829-5.05c-0.001-2.14,0.676-3.897,2.026-5.266c1.354-1.374,3.067-2.061,5.142-2.061
		c1.504-0.002,2.768,0.242,3.791,0.731v1.792c-1.118-0.707-2.442-1.062-3.973-1.06c-1.547,0-2.817,0.534-3.807,1.6
		c-0.989,1.069-1.484,2.451-1.483,4.146c0,1.75,0.461,3.124,1.38,4.125c0.92,0.995,2.166,1.497,3.74,1.497
		c1.081-0.002,2.017-0.215,2.807-0.648l-0.002-3.875l-3.028,0.002v-1.464l4.647-0.002L141.68,92.108z"/>
	<path fill="#EA3829" d="M160.998,93.049h-1.793l-1.467-3.876l-5.86,0.002l-1.377,3.876h-1.803l5.297-13.824l1.676-0.002
		L160.998,93.049z M157.208,87.719l-2.172-5.892c-0.069-0.19-0.14-0.499-0.21-0.925h-0.039c-0.064,0.395-0.138,0.703-0.223,0.925
		l-2.146,5.894L157.208,87.719z"/>
	<path fill="#EA3829" d="M168.441,93.047l-0.005-13.824l3.932-0.002c1.196,0,2.145,0.29,2.844,0.879
		c0.702,0.584,1.052,1.344,1.053,2.282c0,0.784-0.212,1.468-0.636,2.045c-0.425,0.578-1.008,0.989-1.753,1.233V85.7
		c0.932,0.109,1.676,0.463,2.237,1.056c0.559,0.596,0.839,1.364,0.839,2.317c0,1.184-0.422,2.142-1.272,2.875
		c-0.847,0.73-1.918,1.098-3.21,1.098L168.441,93.047z M170.057,80.69l0.001,4.463l1.657-0.001c0.888,0,1.584-0.217,2.092-0.641
		c0.508-0.43,0.761-1.032,0.761-1.811c-0.001-1.341-0.883-2.013-2.651-2.013L170.057,80.69z M170.059,86.607l0.002,4.977
		l2.197-0.002c0.952,0,1.688-0.227,2.212-0.676c0.524-0.452,0.785-1.069,0.785-1.85c-0.001-1.633-1.112-2.451-3.336-2.451
		L170.059,86.607z"/>
	<path fill="#EA3829" d="M187.083,93.042l-7.326,0.002l-0.005-13.824l7.018-0.002l0.001,1.467l-5.398,0.002l0.002,4.596h4.994v1.458
		h-4.994l0.002,4.84l5.706-0.002V93.042z"/>
	<path fill="#EA3829" d="M197.955,80.682l-3.992,0.002l0.004,12.357h-1.62l-0.004-12.357h-3.981l-0.001-1.467l9.592-0.002
		L197.955,80.682z"/>
	<path fill="#EA3829" d="M208.675,80.68h-3.992l0.004,12.357h-1.62l-0.004-12.357l-3.981,0.002l-0.001-1.467l9.592-0.002
		L208.675,80.68z"/>
	<path fill="#EA3829" d="M218.174,93.036h-7.326l-0.005-13.824h7.017l0.001,1.467h-5.397l0.002,4.596h4.993v1.458h-4.993l0.002,4.84
		h5.706V93.036z"/>
	<path fill="#EA3829" d="M230.747,93.032h-1.928l-2.316-3.874c-0.212-0.361-0.417-0.667-0.617-0.921
		c-0.2-0.252-0.404-0.46-0.613-0.621c-0.208-0.16-0.434-0.276-0.675-0.353c-0.241-0.074-0.512-0.11-0.814-0.11h-1.331l0.002,5.881
		h-1.619l-0.005-13.824h4.127c0.604,0,1.161,0.076,1.671,0.229c0.512,0.147,0.955,0.376,1.332,0.685
		c0.376,0.31,0.67,0.692,0.882,1.155c0.212,0.457,0.318,0.997,0.318,1.613c0,0.48-0.071,0.924-0.215,1.327
		c-0.145,0.398-0.351,0.758-0.617,1.071c-0.268,0.316-0.589,0.584-0.964,0.809c-0.377,0.221-0.798,0.394-1.268,0.515v0.039
		c0.23,0.104,0.432,0.219,0.602,0.352c0.17,0.133,0.333,0.287,0.487,0.466c0.154,0.182,0.308,0.383,0.458,0.615
		c0.151,0.227,0.32,0.492,0.506,0.792L230.747,93.032z M222.45,80.676l0.002,5.012h2.199c0.404,0,0.78-0.063,1.123-0.182
		c0.344-0.125,0.641-0.297,0.89-0.528c0.25-0.229,0.447-0.508,0.587-0.838c0.143-0.331,0.213-0.702,0.213-1.116
		c-0.001-0.735-0.24-1.314-0.719-1.727c-0.478-0.416-1.171-0.621-2.078-0.621H222.45z"/>
	<path fill="#EA3829" d="M245.066,80.67l-5.398,0.002l0.002,4.781l4.994-0.002v1.454l-4.994,0.002l0.002,6.122h-1.62l-0.005-13.824
		l7.018-0.002L245.066,80.67z"/>
	<path fill="#EA3829" d="M257.805,87.436c0.002,3.879-1.75,5.819-5.254,5.819c-3.354,0.002-5.031-1.865-5.033-5.597l-0.003-8.455
		h1.62l0.003,8.348c0.001,2.834,1.196,4.253,3.587,4.251c2.308,0,3.461-1.37,3.46-4.106l-0.003-8.494h1.62L257.805,87.436z"/>
	<path fill="#EA3829" d="M269.429,80.665l-3.992,0.002l0.004,12.357h-1.62l-0.004-12.357h-3.981l-0.001-1.467l9.592-0.002
		L269.429,80.665z"/>
	<path fill="#EA3829" d="M281.711,87.431c0.002,3.88-1.749,5.819-5.252,5.819c-3.354,0.001-5.032-1.866-5.034-5.598l-0.003-8.455
		h1.62l0.003,8.348c0.001,2.834,1.197,4.253,3.587,4.251c2.308,0,3.46-1.37,3.459-4.106l-0.003-8.494h1.619L281.711,87.431z"/>
	<path fill="#EA3829" d="M295.076,93.016h-1.928l-2.316-3.874c-0.21-0.361-0.417-0.667-0.616-0.921
		c-0.199-0.252-0.403-0.459-0.613-0.621c-0.208-0.16-0.434-0.276-0.675-0.353c-0.24-0.074-0.512-0.107-0.814-0.107h-1.33
		l0.002,5.878h-1.62l-0.005-13.824h4.125c0.604,0,1.162,0.076,1.673,0.229c0.511,0.147,0.955,0.376,1.331,0.686
		c0.376,0.311,0.67,0.691,0.884,1.154c0.212,0.457,0.318,0.997,0.319,1.613c0,0.48-0.073,0.924-0.218,1.327
		c-0.145,0.399-0.351,0.758-0.617,1.071c-0.265,0.316-0.587,0.587-0.964,0.809c-0.376,0.221-0.798,0.394-1.268,0.515v0.039
		c0.231,0.104,0.432,0.219,0.602,0.352c0.171,0.133,0.333,0.287,0.487,0.468c0.154,0.18,0.308,0.381,0.458,0.613
		c0.151,0.227,0.32,0.492,0.507,0.792L295.076,93.016z M286.781,80.661l0.002,5.012h2.198c0.404,0,0.779-0.063,1.123-0.182
		c0.344-0.125,0.641-0.297,0.89-0.528c0.252-0.229,0.448-0.508,0.589-0.838c0.142-0.331,0.211-0.702,0.211-1.116
		c-0.001-0.735-0.24-1.311-0.719-1.727c-0.478-0.416-1.172-0.621-2.077-0.621H286.781z"/>
	<path fill="#EA3829" d="M304.3,93.014l-7.326,0.002l-0.005-13.824l7.017-0.002l0.001,1.467l-5.397,0.002l0.002,4.596l4.994-0.002
		v1.458l-4.994,0.002l0.002,4.84l5.707-0.002V93.014z"/>
</g>
</svg>
