<?xml version="1.0" encoding="utf-8"?>
<!-- Generator: Adobe Illustrator 16.0.0, SVG Export Plug-In . SVG Version: 6.00 Build 0)  -->
<!DOCTYPE svg PUBLIC "-//W3C//DTD SVG 1.1//EN" "http://www.w3.org/Graphics/SVG/1.1/DTD/svg11.dtd">
<svg version="1.1" id="Layer_1" xmlns="http://www.w3.org/2000/svg" xmlns:xlink="http://www.w3.org/1999/xlink" x="0px" y="0px"
	 width="332.281px" height="93.909px" viewBox="0 0 332.281 93.909" enable-background="new 0 0 332.281 93.909"
	 xml:space="preserve">
<g>
	<path fill="#FFFFFF" d="M57.657,8.928l0.002,0.002c-0.003-0.004-0.005-0.006-0.01-0.006c-0.004-0.006-0.008-0.012-0.014-0.018
		l-0.002,0.002C43.876-3.178,22.851-1.933,10.626,11.747c-6.363,7.119-9.105,16.226-8.368,25.068l11.24-0.887
		c-0.503-5.873,1.303-11.938,5.536-16.675c8.122-9.092,22.116-9.901,31.231-1.828c9.26,7.898,10.419,21.858,2.558,31.171
		c-4.094,4.855-9.845,7.491-15.737,7.815l0.704,11.255c8.854-0.509,17.49-4.502,23.647-11.8
		C73.268,41.849,71.549,20.855,57.657,8.928z"/>
	<polygon fill="#FFFFFF" points="12.701,47.252 24.613,46.343 25.38,58.264 33.063,64.941 31.313,38.626 5.014,40.584 	"/>
</g>
<g>
	<path fill="#FFFFFF" d="M119.199,58.126l-13.124-0.012l-7.878-13.059c-0.588-0.992-1.153-1.876-1.694-2.656
		c-0.543-0.776-1.09-1.441-1.644-2.001c-0.553-0.554-1.131-0.975-1.731-1.275c-0.601-0.294-1.256-0.439-1.964-0.44l-3.077-0.003
		l-0.015,19.419l-11.426-0.01l0.043-50.724l18.11,0.016c12.311,0.012,18.461,4.61,18.453,13.807
		c-0.001,1.771-0.274,3.405-0.818,4.901c-0.543,1.495-1.31,2.846-2.302,4.046c-0.992,1.206-2.191,2.244-3.594,3.114
		c-1.404,0.869-2.966,1.553-4.689,2.044v0.144c0.756,0.236,1.485,0.621,2.193,1.149c0.706,0.535,1.389,1.153,2.05,1.862
		c0.66,0.706,1.29,1.468,1.89,2.28c0.6,0.816,1.148,1.61,1.644,2.391L119.199,58.126z M88.105,15.934l-0.013,14.115l4.954,0.004
		c2.452,0.002,4.423-0.704,5.91-2.12c1.509-1.434,2.265-3.218,2.267-5.338c0.004-4.433-2.646-6.651-7.952-6.656L88.105,15.934z"/>
	<path fill="#FFFFFF" d="M135.365,58.14l-11.425-0.01l0.042-50.728l11.426,0.008L135.365,58.14z"/>
	<path fill="#FFFFFF" d="M188.535,54.791c-4.955,2.85-11.109,4.268-18.47,4.26c-8.16-0.006-14.588-2.27-19.29-6.791
		c-4.702-4.514-7.048-10.738-7.042-18.661c0.007-7.971,2.583-14.467,7.729-19.485c5.146-5.021,11.986-7.525,20.524-7.519
		c5.375,0.005,10.115,0.753,14.218,2.239l-0.009,10.723c-3.915-2.269-8.7-3.406-14.361-3.412c-4.739-0.004-8.603,1.53-11.587,4.608
		c-2.988,3.073-4.481,7.18-4.486,12.322c-0.004,5.213,1.33,9.245,4.005,12.106c2.673,2.854,6.288,4.282,10.838,4.286
		c2.735,0.002,4.906-0.387,6.508-1.161l0.008-9.904l-10.15-0.009l0.008-9.13l21.578,0.02L188.535,54.791z"/>
	<path fill="#FFFFFF" d="M243.007,58.231l-12.451-0.012l-3.6-11.287l-18.04-0.016l-3.582,11.281l-12.379-0.01l18.506-50.713
		l13.546,0.012L243.007,58.231z M224.349,38.158l-5.436-17.055c-0.399-1.273-0.681-2.798-0.845-4.564l-0.281-0.001
		c-0.121,1.483-0.417,2.961-0.89,4.421l-5.532,17.188L224.349,38.158z"/>
	<path fill="#FFFFFF" d="M307.14,58.286l-11.283-0.01l0.026-30.355c0.003-3.273,0.146-6.896,0.432-10.858h-0.283
		c-0.591,3.116-1.124,5.356-1.597,6.72L282.52,58.265l-9.338-0.008l-12.069-34.148c-0.33-0.92-0.859-3.276-1.586-7.077h-0.319
		c0.302,5.003,0.452,9.388,0.449,13.159l-0.024,28.055l-10.293-0.01l0.042-50.728l16.733,0.015l10.338,30.076
		c0.824,2.408,1.423,4.824,1.798,7.256h0.213c0.64-2.809,1.312-5.248,2.022-7.324l10.389-29.986l16.308,0.014L307.14,58.286z"/>
	<path fill="#FFFFFF" d="M330.098,58.306l-11.425-0.01l0.042-50.729l11.426,0.01L330.098,58.306z"/>
</g>
<g>
	<path fill="#FFFFFF" d="M63.844,92.495c-1.023,0.538-2.296,0.808-3.819,0.808c-1.966,0-3.54-0.632-4.724-1.896
		c-1.183-1.267-1.775-2.928-1.776-4.981c-0.001-2.209,0.665-4.001,1.995-5.36c1.33-1.362,3.016-2.046,5.059-2.046
		c1.312,0,2.397,0.187,3.261,0.567v1.728c-0.991-0.558-2.083-0.832-3.28-0.832c-1.586,0-2.874,0.536-3.861,1.593
		c-0.983,1.062-1.478,2.48-1.477,4.252c0,1.685,0.462,3.027,1.384,4.021c0.923,1.002,2.134,1.502,3.629,1.502
		c1.389,0,2.591-0.309,3.608-0.925V92.495z"/>
	<path fill="#FFFFFF" d="M76.568,93.069H74.64l-2.314-3.874c-0.213-0.361-0.418-0.668-0.617-0.921
		c-0.2-0.252-0.405-0.462-0.613-0.621c-0.208-0.163-0.435-0.276-0.675-0.353c-0.242-0.075-0.512-0.112-0.815-0.112h-1.331
		l0.002,5.883h-1.62l-0.005-13.824h4.126c0.605,0,1.161,0.076,1.672,0.224c0.513,0.154,0.956,0.383,1.332,0.691
		c0.375,0.306,0.67,0.69,0.882,1.153c0.213,0.456,0.318,0.997,0.319,1.614c0,0.479-0.071,0.923-0.215,1.326
		c-0.146,0.398-0.352,0.757-0.618,1.071c-0.266,0.316-0.588,0.583-0.964,0.809c-0.375,0.221-0.799,0.39-1.269,0.515v0.039
		c0.232,0.104,0.435,0.219,0.604,0.352c0.17,0.131,0.332,0.287,0.487,0.466c0.153,0.182,0.307,0.385,0.458,0.608
		c0.151,0.235,0.32,0.499,0.506,0.801L76.568,93.069z M68.273,80.715l0.002,5.011h2.198c0.405,0,0.781-0.063,1.123-0.181
		c0.344-0.126,0.641-0.303,0.891-0.53c0.25-0.226,0.447-0.505,0.587-0.836c0.142-0.33,0.213-0.703,0.213-1.115
		c-0.001-0.737-0.241-1.317-0.72-1.729c-0.478-0.416-1.171-0.62-2.078-0.62H68.273z"/>
	<path fill="#FFFFFF" d="M89.169,93.067h-1.793l-1.467-3.876l-5.861,0.002l-1.378,3.876h-1.803l5.298-13.826h1.677L89.169,93.067z
		 M85.376,87.738l-2.169-5.893c-0.072-0.19-0.141-0.499-0.213-0.925h-0.039c-0.063,0.395-0.138,0.703-0.221,0.925l-2.148,5.895
		L85.376,87.738z"/>
	<path fill="#FFFFFF" d="M98.216,80.707l-5.397,0.002l0.002,4.781h4.994v1.453H92.82l0.002,6.122h-1.62l-0.005-13.824l7.018-0.002
		L98.216,80.707z"/>
	<path fill="#FFFFFF" d="M109.149,80.705l-3.992,0.002l0.004,12.356h-1.62l-0.004-12.356h-3.981l-0.001-1.468l9.592-0.002
		L109.149,80.705z"/>
	<path fill="#FFFFFF" d="M112.94,93.062h-1.62l-0.005-13.824h1.62L112.94,93.062z"/>
	<path fill="#FFFFFF" d="M127.72,93.058h-1.986l-7.118-11.019c-0.181-0.277-0.328-0.566-0.443-0.866h-0.059
		c0.052,0.296,0.076,0.929,0.077,1.898l0.003,9.988h-1.619l-0.003-13.824h2.1l6.927,10.842c0.289,0.453,0.475,0.762,0.561,0.925
		h0.037c-0.064-0.394-0.097-1.072-0.097-2.031l-0.004-9.737h1.62L127.72,93.058z"/>
	<path fill="#FFFFFF" d="M141.68,92.108c-1.39,0.787-2.932,1.175-4.628,1.177c-1.973,0-3.569-0.636-4.786-1.908
		c-1.22-1.272-1.828-2.953-1.829-5.051c-0.001-2.138,0.676-3.896,2.026-5.266c1.354-1.373,3.067-2.06,5.142-2.06
		c1.505-0.002,2.768,0.242,3.792,0.732v1.791c-1.119-0.707-2.443-1.063-3.974-1.061c-1.547,0-2.817,0.535-3.807,1.601
		c-0.99,1.069-1.484,2.451-1.483,4.145c0,1.751,0.461,3.125,1.381,4.127c0.92,0.994,2.166,1.496,3.74,1.496
		c1.082-0.002,2.017-0.215,2.808-0.648l-0.002-3.875l-3.028,0.002v-1.464l4.647-0.002L141.68,92.108z"/>
	<path fill="#FFFFFF" d="M160.998,93.049h-1.793l-1.467-3.875l-5.86,0.002l-1.376,3.875h-1.803l5.297-13.823l1.676-0.002
		L160.998,93.049z M157.208,87.721l-2.172-5.893c-0.069-0.19-0.141-0.499-0.21-0.925h-0.039c-0.064,0.395-0.138,0.703-0.223,0.925
		l-2.146,5.895L157.208,87.721z"/>
	<path fill="#FFFFFF" d="M168.441,93.047l-0.005-13.823l3.932-0.002c1.196,0,2.145,0.29,2.844,0.876
		c0.702,0.588,1.052,1.346,1.053,2.285c0,0.784-0.212,1.468-0.636,2.045c-0.426,0.577-1.008,0.989-1.753,1.233V85.7
		c0.932,0.109,1.676,0.463,2.236,1.056c0.559,0.596,0.839,1.361,0.839,2.318c0,1.183-0.422,2.141-1.272,2.875
		c-0.847,0.729-1.918,1.096-3.211,1.096L168.441,93.047z M170.057,80.691l0.001,4.463l1.656-0.002c0.888,0,1.584-0.218,2.092-0.641
		c0.509-0.43,0.761-1.032,0.761-1.812c-0.001-1.34-0.883-2.011-2.651-2.011L170.057,80.691z M170.059,86.607l0.001,4.977
		l2.197-0.002c0.952,0,1.688-0.227,2.212-0.675c0.524-0.453,0.785-1.07,0.785-1.849c-0.001-1.635-1.112-2.453-3.336-2.453
		L170.059,86.607z"/>
	<path fill="#FFFFFF" d="M187.083,93.041l-7.326,0.002l-0.005-13.824l7.018-0.002l0.001,1.469l-5.398,0.002l0.002,4.595h4.994v1.458
		h-4.994l0.002,4.84l5.706-0.002V93.041z"/>
	<path fill="#FFFFFF" d="M197.955,80.684l-3.992,0.002l0.004,12.355h-1.62l-0.004-12.355h-3.981l-0.001-1.469l9.592-0.002
		L197.955,80.684z"/>
	<path fill="#FFFFFF" d="M208.675,80.682h-3.992l0.004,12.355h-1.62l-0.004-12.355l-3.981,0.002l-0.001-1.469l9.592-0.002
		L208.675,80.682z"/>
	<path fill="#FFFFFF" d="M218.174,93.035h-7.326l-0.005-13.824h7.017l0.001,1.469h-5.397l0.002,4.595h4.994v1.458h-4.994l0.002,4.84
		h5.706V93.035z"/>
	<path fill="#FFFFFF" d="M230.747,93.031h-1.928l-2.317-3.873c-0.213-0.361-0.417-0.668-0.617-0.921
		c-0.2-0.252-0.404-0.458-0.612-0.621c-0.209-0.159-0.435-0.276-0.675-0.353c-0.243-0.075-0.513-0.111-0.815-0.111h-1.331
		l0.002,5.881h-1.62l-0.004-13.824h4.127c0.604,0,1.16,0.077,1.671,0.229c0.512,0.147,0.955,0.376,1.332,0.685
		c0.376,0.307,0.67,0.692,0.881,1.155c0.213,0.456,0.319,0.997,0.319,1.614c0,0.479-0.071,0.923-0.215,1.327
		c-0.145,0.397-0.351,0.756-0.617,1.07c-0.268,0.316-0.589,0.583-0.964,0.809c-0.377,0.22-0.798,0.396-1.268,0.515v0.039
		c0.23,0.104,0.432,0.219,0.602,0.352c0.171,0.133,0.333,0.287,0.487,0.467c0.154,0.181,0.308,0.382,0.458,0.614
		c0.151,0.227,0.32,0.491,0.507,0.792L230.747,93.031z M222.45,80.678l0.002,5.011h2.2c0.404,0,0.779-0.063,1.123-0.181
		c0.343-0.126,0.642-0.298,0.89-0.53c0.25-0.228,0.447-0.507,0.586-0.837c0.143-0.331,0.213-0.702,0.213-1.116
		c-0.001-0.735-0.239-1.315-0.717-1.727c-0.479-0.416-1.172-0.62-2.077-0.62H222.45z"/>
	<path fill="#FFFFFF" d="M245.065,80.672l-5.397,0.002l0.002,4.78l4.994-0.002v1.454l-4.994,0.002l0.002,6.121h-1.62l-0.005-13.824
		l7.017-0.002L245.065,80.672z"/>
	<path fill="#FFFFFF" d="M257.805,87.438c0.003,3.879-1.75,5.818-5.255,5.818c-3.354,0.002-5.03-1.865-5.032-5.597l-0.003-8.456
		h1.62l0.003,8.349c0.001,2.834,1.196,4.253,3.587,4.251c2.308,0,3.461-1.37,3.46-4.106l-0.003-8.495h1.62L257.805,87.438z"/>
	<path fill="#FFFFFF" d="M269.429,80.666l-3.992,0.002l0.004,12.355h-1.62l-0.004-12.355h-3.981l-0.001-1.469l9.592-0.002
		L269.429,80.666z"/>
	<path fill="#FFFFFF" d="M281.711,87.432c0.002,3.881-1.75,5.816-5.252,5.816c-3.354,0.004-5.031-1.863-5.033-5.595l-0.003-8.456
		h1.618l0.002,8.349c0.001,2.833,1.199,4.253,3.589,4.251c2.309,0,3.459-1.37,3.458-4.106l-0.002-8.495h1.619L281.711,87.432z"/>
	<path fill="#FFFFFF" d="M295.076,93.016h-1.928l-2.316-3.873c-0.21-0.361-0.417-0.668-0.617-0.921
		c-0.199-0.252-0.403-0.458-0.612-0.621c-0.209-0.159-0.433-0.276-0.675-0.353c-0.24-0.074-0.512-0.109-0.815-0.109h-1.328
		l0.002,5.879h-1.62l-0.005-13.824h4.125c0.604,0,1.162,0.077,1.673,0.229c0.51,0.147,0.955,0.376,1.33,0.685
		c0.376,0.313,0.67,0.692,0.884,1.155c0.21,0.456,0.318,0.997,0.319,1.614c0,0.479-0.073,0.923-0.218,1.327
		c-0.145,0.397-0.352,0.756-0.617,1.07c-0.266,0.316-0.587,0.587-0.964,0.809c-0.377,0.22-0.798,0.395-1.268,0.515v0.039
		c0.231,0.104,0.432,0.219,0.602,0.352c0.171,0.133,0.333,0.287,0.487,0.469c0.154,0.179,0.307,0.38,0.458,0.612
		c0.151,0.227,0.32,0.491,0.506,0.792L295.076,93.016z M286.781,80.662l0.002,5.011h2.197c0.403,0,0.779-0.063,1.123-0.181
		c0.344-0.126,0.641-0.297,0.89-0.53c0.252-0.228,0.447-0.507,0.589-0.837c0.142-0.331,0.21-0.702,0.21-1.115
		c-0.001-0.736-0.239-1.313-0.718-1.728c-0.478-0.416-1.172-0.62-2.077-0.62H286.781z"/>
	<path fill="#FFFFFF" d="M304.3,93.014l-7.326,0.002l-0.005-13.824l7.017-0.002l0.001,1.469l-5.397,0.002l0.002,4.595l4.994-0.002
		v1.458l-4.994,0.002l0.002,4.84l5.707-0.002V93.014z"/>
</g>
</svg>
