<?xml version="1.0" encoding="utf-8"?>
<!-- Generator: Adobe Illustrator 16.0.0, SVG Export Plug-In . SVG Version: 6.00 Build 0)  -->
<!DOCTYPE svg PUBLIC "-//W3C//DTD SVG 1.1//EN" "http://www.w3.org/Graphics/SVG/1.1/DTD/svg11.dtd">
<svg version="1.1" id="Layer_1" xmlns="http://www.w3.org/2000/svg" xmlns:xlink="http://www.w3.org/1999/xlink" x="0px" y="0px"
	 width="332.281px" height="93.908px" viewBox="0 0 332.281 93.908" enable-background="new 0 0 332.281 93.908"
	 xml:space="preserve">
<g>
	<path fill="#1568AF" d="M57.657,8.926l0.002,0.001c-0.004-0.002-0.006-0.004-0.01-0.005c-0.005-0.005-0.009-0.011-0.015-0.017
		l-0.002,0.002C43.876-3.176,22.851-1.934,10.626,11.747c-6.363,7.117-9.105,16.228-8.369,25.066l11.241-0.881
		c-0.504-5.876,1.302-11.944,5.535-16.676c8.123-9.094,22.115-9.902,31.231-1.831c9.261,7.896,10.419,21.858,2.559,31.171
		c-4.094,4.854-9.845,7.493-15.736,7.818l0.703,11.254c8.855-0.511,17.49-4.501,23.647-11.802
		C73.268,41.848,71.549,20.854,57.657,8.926z"/>
	<polygon fill="#1568AF" points="12.701,47.251 24.613,46.342 25.38,58.262 33.063,64.941 31.313,38.626 5.014,40.583 	"/>
</g>
<g>
	<path fill="#1568AF" d="M119.199,58.125l-13.124-0.012l-7.878-13.058c-0.588-0.992-1.154-1.875-1.694-2.656
		c-0.543-0.779-1.09-1.445-1.644-2c-0.553-0.555-1.131-0.979-1.731-1.274c-0.601-0.295-1.256-0.442-1.964-0.443l-3.077-0.002
		L88.07,58.099l-11.425-0.01l0.042-50.726l18.111,0.015c12.311,0.011,18.461,4.614,18.454,13.812
		c-0.001,1.769-0.274,3.402-0.818,4.898c-0.543,1.498-1.311,2.848-2.302,4.048c-0.992,1.202-2.191,2.239-3.594,3.111
		c-1.404,0.87-2.966,1.553-4.688,2.046v0.142c0.755,0.236,1.485,0.62,2.193,1.152c0.706,0.53,1.389,1.151,2.05,1.858
		c0.66,0.709,1.29,1.469,1.89,2.284c0.6,0.814,1.148,1.61,1.644,2.389L119.199,58.125z M88.105,15.934l-0.012,14.115l4.953,0.004
		c2.453,0.001,4.423-0.705,5.911-2.118c1.509-1.437,2.266-3.217,2.267-5.34c0.004-4.433-2.647-6.652-7.953-6.657L88.105,15.934z"/>
	<path fill="#1568AF" d="M135.365,58.139l-11.425-0.01l0.042-50.726l11.426,0.01L135.365,58.139z"/>
	<path fill="#1568AF" d="M188.535,54.787c-4.955,2.85-11.11,4.271-18.47,4.264c-8.16-0.006-14.588-2.269-19.29-6.789
		c-4.702-4.52-7.048-10.742-7.042-18.667c0.007-7.97,2.583-14.464,7.729-19.483s11.986-7.524,20.523-7.517
		c5.375,0.004,10.116,0.75,14.219,2.24l-0.009,10.718c-3.915-2.267-8.7-3.403-14.361-3.408c-4.739-0.004-8.603,1.532-11.587,4.608
		c-2.987,3.074-4.481,7.183-4.485,12.324c-0.004,5.211,1.33,9.246,4.005,12.101c2.673,2.856,6.288,4.286,10.838,4.29
		c2.735,0.002,4.906-0.385,6.508-1.161l0.009-9.906l-10.151-0.009l0.008-9.126l21.578,0.019L188.535,54.787z"/>
	<path fill="#1568AF" d="M243.007,58.23l-12.451-0.011l-3.6-11.288l-18.04-0.016l-3.582,11.282l-12.379-0.011l18.506-50.711
		l13.547,0.011L243.007,58.23z M224.348,38.157l-5.435-17.056c-0.399-1.273-0.681-2.794-0.845-4.563l-0.281,0
		c-0.121,1.487-0.417,2.959-0.89,4.421l-5.532,17.188L224.348,38.157z"/>
	<path fill="#1568AF" d="M307.141,58.283l-11.284-0.01l0.026-30.35c0.003-3.278,0.146-6.898,0.432-10.859h-0.283
		c-0.592,3.111-1.124,5.352-1.597,6.72L282.52,58.262l-9.338-0.008l-12.069-34.145c-0.33-0.921-0.858-3.279-1.585-7.077h-0.319
		c0.302,5,0.452,9.386,0.449,13.159l-0.024,28.052l-10.293-0.008l0.042-50.728l16.733,0.014l10.339,30.076
		c0.823,2.406,1.423,4.825,1.798,7.254h0.212c0.64-2.805,1.313-5.246,2.022-7.32l10.39-29.989l16.308,0.014L307.141,58.283z"/>
	<path fill="#1568AF" d="M330.098,58.303l-11.426-0.01l0.043-50.727l11.426,0.01L330.098,58.303z"/>
</g>
<g>
	<path fill="#1568AF" d="M63.844,92.493c-1.022,0.539-2.296,0.811-3.818,0.811c-1.967,0-3.541-0.633-4.724-1.899
		s-1.775-2.926-1.776-4.981c-0.001-2.212,0.665-4,1.995-5.362c1.33-1.361,3.016-2.044,5.059-2.044c1.312,0,2.397,0.189,3.261,0.567
		v1.726c-0.99-0.552-2.083-0.827-3.279-0.827c-1.586,0-2.874,0.53-3.86,1.591c-0.985,1.06-1.479,2.477-1.478,4.25
		c0,1.685,0.462,3.025,1.384,4.025c0.923,1,2.133,1.499,3.63,1.499c1.389,0,2.59-0.309,3.607-0.928V92.493z"/>
	<path fill="#1568AF" d="M76.568,93.068H74.64l-2.314-3.875c-0.212-0.359-0.418-0.667-0.616-0.92
		c-0.2-0.253-0.405-0.461-0.614-0.622c-0.208-0.161-0.434-0.277-0.674-0.353c-0.242-0.074-0.512-0.109-0.815-0.109h-1.331
		l0.002,5.88h-1.62l-0.005-13.824l4.126-0.001c0.605,0,1.162,0.076,1.673,0.228c0.512,0.151,0.956,0.381,1.332,0.69
		c0.375,0.307,0.669,0.69,0.882,1.15c0.213,0.461,0.318,0.998,0.319,1.614c0,0.482-0.071,0.925-0.216,1.326
		c-0.146,0.403-0.351,0.759-0.618,1.074c-0.266,0.316-0.588,0.585-0.964,0.806c-0.375,0.223-0.798,0.395-1.268,0.516v0.039
		c0.232,0.103,0.434,0.22,0.604,0.353c0.17,0.131,0.333,0.287,0.486,0.467c0.155,0.181,0.309,0.382,0.459,0.612
		c0.151,0.228,0.32,0.494,0.506,0.795L76.568,93.068z M68.274,80.711l0.002,5.013l2.198-0.001c0.405,0,0.78-0.062,1.123-0.184
		c0.344-0.122,0.641-0.296,0.891-0.526c0.25-0.227,0.447-0.507,0.587-0.837c0.142-0.331,0.213-0.703,0.213-1.114
		c-0.001-0.74-0.241-1.316-0.72-1.731c-0.478-0.414-1.17-0.622-2.077-0.622L68.274,80.711z"/>
	<path fill="#1568AF" d="M89.169,93.065h-1.793l-1.467-3.875l-5.861,0.001l-1.378,3.875l-1.802,0.001l5.296-13.826h1.678
		L89.169,93.065z M85.376,87.735l-2.17-5.89c-0.071-0.193-0.14-0.501-0.212-0.925h-0.039c-0.063,0.392-0.138,0.702-0.221,0.925
		l-2.148,5.891L85.376,87.735z"/>
	<path fill="#1568AF" d="M98.216,80.704l-5.397,0.002l0.002,4.781l4.994-0.001v1.456l-4.994,0.001l0.002,6.122h-1.62L91.197,79.24
		l7.018-0.002L98.216,80.704z"/>
	<path fill="#1568AF" d="M109.149,80.702l-3.992,0.001l0.004,12.358h-1.62l-0.004-12.358l-3.981,0.001l-0.001-1.466l9.592-0.002
		L109.149,80.702z"/>
	<path fill="#1568AF" d="M112.94,93.059h-1.62l-0.005-13.824h1.62L112.94,93.059z"/>
	<path fill="#1568AF" d="M127.72,93.055l-1.986,0.001l-7.118-11.017c-0.18-0.276-0.328-0.567-0.443-0.868h-0.058
		c0.051,0.295,0.076,0.93,0.077,1.899l0.003,9.987h-1.619l-0.004-13.824l2.101-0.001l6.927,10.845
		c0.289,0.45,0.475,0.758,0.561,0.925h0.037c-0.064-0.399-0.097-1.076-0.097-2.034l-0.004-9.738l1.62-0.001L127.72,93.055z"/>
	<path fill="#1568AF" d="M141.68,92.108c-1.39,0.783-2.932,1.177-4.628,1.178c-1.973,0-3.569-0.635-4.786-1.908
		c-1.219-1.272-1.828-2.958-1.829-5.052c-0.001-2.14,0.676-3.896,2.026-5.268c1.354-1.371,3.067-2.059,5.142-2.059
		c1.504-0.001,2.768,0.242,3.791,0.731v1.793c-1.118-0.706-2.442-1.06-3.973-1.059c-1.547,0-2.817,0.532-3.807,1.601
		c-0.989,1.067-1.484,2.448-1.483,4.145c0,1.748,0.461,3.121,1.38,4.121c0.92,0.999,2.166,1.499,3.74,1.499
		c1.081-0.001,2.017-0.216,2.807-0.647l-0.002-3.875l-3.028,0.001v-1.465l4.647-0.001L141.68,92.108z"/>
	<path fill="#1568AF" d="M160.998,93.047h-1.793l-1.467-3.875l-5.86,0.001l-1.377,3.875l-1.803,0.001l5.297-13.825l1.676-0.001
		L160.998,93.047z M157.208,87.717l-2.172-5.89c-0.069-0.193-0.14-0.501-0.21-0.925h-0.039c-0.064,0.393-0.138,0.701-0.223,0.925
		l-2.146,5.891L157.208,87.717z"/>
	<path fill="#1568AF" d="M168.441,93.045l-0.005-13.823l3.932-0.001c1.196,0,2.145,0.292,2.844,0.876
		c0.702,0.584,1.052,1.348,1.053,2.285c0,0.784-0.212,1.465-0.636,2.043c-0.425,0.578-1.008,0.991-1.753,1.234v0.039
		c0.932,0.107,1.676,0.459,2.237,1.055c0.559,0.595,0.839,1.367,0.839,2.318c0,1.184-0.422,2.141-1.272,2.873
		c-0.847,0.732-1.918,1.1-3.21,1.1L168.441,93.045z M170.057,80.687l0.001,4.464l1.657-0.001c0.888,0,1.584-0.214,2.092-0.641
		c0.508-0.428,0.761-1.031,0.761-1.809c-0.001-1.343-0.883-2.015-2.651-2.015L170.057,80.687z M170.059,86.606l0.002,4.974
		l2.197-0.001c0.952,0,1.688-0.224,2.212-0.674c0.524-0.452,0.785-1.068,0.785-1.852c-0.001-1.632-1.112-2.448-3.336-2.448
		L170.059,86.606z"/>
	<path fill="#1568AF" d="M187.083,93.041l-7.326,0.002l-0.005-13.823l7.018-0.002l0.001,1.464l-5.398,0.002l0.002,4.6l4.994-0.001
		v1.455l-4.994,0.001l0.002,4.838l5.706-0.002V93.041z"/>
	<path fill="#1568AF" d="M197.955,80.68l-3.992,0.001l0.004,12.358h-1.62l-0.004-12.358l-3.981,0.001l-0.001-1.464l9.592-0.002
		L197.955,80.68z"/>
	<path fill="#1568AF" d="M208.675,80.677l-3.992,0.001l0.004,12.358h-1.62l-0.004-12.358l-3.981,0.001l-0.001-1.464l9.592-0.002
		L208.675,80.677z"/>
	<path fill="#1568AF" d="M218.174,93.034l-7.326,0.001l-0.005-13.823l7.017,0l0.001,1.464l-5.397,0.001l0.002,4.6l4.993-0.001v1.456
		l-4.993,0.001l0.002,4.838l5.706-0.001V93.034z"/>
	<path fill="#1568AF" d="M230.747,93.03l-1.928,0.001l-2.316-3.874c-0.212-0.358-0.417-0.666-0.617-0.92
		c-0.2-0.253-0.404-0.461-0.613-0.622c-0.208-0.161-0.434-0.277-0.675-0.353c-0.241-0.073-0.512-0.11-0.814-0.11l-1.331,0.001
		l0.002,5.879h-1.619L220.83,79.21l4.127-0.001c0.604,0,1.161,0.074,1.671,0.226c0.512,0.15,0.955,0.38,1.332,0.689
		c0.376,0.308,0.67,0.692,0.882,1.152c0.212,0.459,0.318,0.997,0.318,1.615c0,0.482-0.071,0.923-0.215,1.324
		c-0.145,0.403-0.351,0.76-0.617,1.076c-0.268,0.315-0.589,0.583-0.964,0.805c-0.377,0.221-0.798,0.394-1.268,0.515v0.039
		c0.23,0.104,0.432,0.221,0.602,0.352c0.17,0.132,0.333,0.287,0.487,0.467s0.308,0.384,0.458,0.612
		c0.151,0.229,0.32,0.494,0.506,0.795L230.747,93.03z M222.45,80.674l0.002,5.013l2.199-0.001c0.404,0,0.78-0.061,1.123-0.184
		c0.344-0.122,0.641-0.296,0.89-0.524c0.25-0.229,0.447-0.509,0.587-0.839c0.143-0.331,0.213-0.703,0.213-1.113
		c-0.001-0.741-0.24-1.316-0.719-1.73c-0.478-0.414-1.171-0.622-2.078-0.622L222.45,80.674z"/>
	<path fill="#1568AF" d="M245.066,80.668l-5.398,0.001l0.002,4.783l4.994-0.001v1.455l-4.994,0.001l0.002,6.121l-1.62,0.001
		l-0.005-13.822l7.018-0.002L245.066,80.668z"/>
	<path fill="#1568AF" d="M257.805,87.433c0.002,3.882-1.75,5.823-5.254,5.824c-3.354,0.001-5.031-1.867-5.033-5.6l-0.003-8.454h1.62
		l0.003,8.348c0.001,2.834,1.196,4.251,3.587,4.25c2.308-0.001,3.461-1.37,3.46-4.106l-0.003-8.493h1.62L257.805,87.433z"/>
	<path fill="#1568AF" d="M269.429,80.664l-3.992,0.001l0.004,12.357h-1.62l-0.004-12.357l-3.981,0.001l-0.001-1.465l9.592-0.002
		L269.429,80.664z"/>
	<path fill="#1568AF" d="M281.711,87.427c0.002,3.882-1.749,5.823-5.252,5.824c-3.354,0.001-5.032-1.866-5.034-5.6l-0.003-8.454
		h1.62l0.003,8.348c0.001,2.834,1.197,4.25,3.587,4.25c2.308-0.001,3.46-1.369,3.459-4.106l-0.003-8.493h1.619L281.711,87.427z"/>
	<path fill="#1568AF" d="M295.076,93.014l-1.928,0.001l-2.316-3.873c-0.21-0.36-0.417-0.667-0.616-0.922
		c-0.199-0.253-0.403-0.461-0.613-0.622c-0.208-0.161-0.434-0.277-0.675-0.353c-0.24-0.073-0.512-0.11-0.814-0.11l-1.33,0.001
		l0.002,5.879h-1.62l-0.005-13.822l4.125-0.001c0.604,0,1.162,0.074,1.673,0.225c0.511,0.151,0.955,0.381,1.331,0.69
		c0.376,0.308,0.67,0.693,0.884,1.152c0.212,0.459,0.318,0.998,0.319,1.615c0,0.482-0.073,0.923-0.218,1.324
		c-0.145,0.403-0.351,0.761-0.617,1.076c-0.265,0.315-0.587,0.583-0.964,0.805c-0.376,0.221-0.798,0.394-1.268,0.516v0.039
		c0.231,0.104,0.432,0.221,0.602,0.352c0.171,0.132,0.333,0.287,0.487,0.467c0.154,0.181,0.308,0.384,0.458,0.612
		c0.151,0.229,0.32,0.494,0.507,0.795L295.076,93.014z M286.781,80.661l0.002,5.011l2.198-0.001c0.404,0,0.779-0.06,1.123-0.184
		c0.344-0.122,0.641-0.296,0.89-0.525c0.252-0.229,0.448-0.508,0.589-0.839c0.142-0.331,0.211-0.703,0.211-1.113
		c-0.001-0.74-0.24-1.316-0.719-1.73c-0.478-0.415-1.172-0.621-2.077-0.621L286.781,80.661z"/>
	<path fill="#1568AF" d="M304.3,93.012l-7.326,0.002l-0.005-13.822l7.017-0.002l0.001,1.466l-5.397,0.002l0.002,4.598l4.994-0.002
		v1.456l-4.994,0.002l0.002,4.839l5.707-0.002V93.012z"/>
</g>
</svg>
